solid OpenSCAD_Model
  facet normal 0.86603 0.499992 0
    outer loop
      vertex 24.6657 10.9819 60
      vertex 21.8435 15.8702 55
      vertex 21.8435 15.8702 60
    endloop
  endfacet
  facet normal 0.86603 0.499992 0
    outer loop
      vertex 21.8435 15.8702 55
      vertex 24.6657 10.9819 60
      vertex 24.6657 10.9819 55
    endloop
  endfacet
  facet normal -0.951054 0.309023 0
    outer loop
      vertex -26.41 5.61362 55
      vertex -24.6657 10.9819 60
      vertex -24.6657 10.9819 55
    endloop
  endfacet
  facet normal -0.951054 0.309023 0
    outer loop
      vertex -24.6657 10.9819 60
      vertex -26.41 5.61362 55
      vertex -26.41 5.61362 60
    endloop
  endfacet
  facet normal 0.743138 0.669138 0
    outer loop
      vertex 21.8435 15.8702 60
      vertex 18.0665 20.0649 55
      vertex 18.0665 20.0649 60
    endloop
  endfacet
  facet normal 0.743138 0.669138 0
    outer loop
      vertex 18.0665 20.0649 55
      vertex 21.8435 15.8702 60
      vertex 21.8435 15.8702 55
    endloop
  endfacet
  facet normal 0.207918 0.978146 -0
    outer loop
      vertex 8.34346 25.6785 55
      vertex 2.82227 26.8521 60
      vertex 8.34346 25.6785 60
    endloop
  endfacet
  facet normal 0.207918 0.978146 0
    outer loop
      vertex 2.82227 26.8521 60
      vertex 8.34346 25.6785 55
      vertex 2.82227 26.8521 55
    endloop
  endfacet
  facet normal -0.406731 0.913548 0
    outer loop
      vertex -8.34346 25.6785 55
      vertex -13.5 23.3827 60
      vertex -8.34346 25.6785 60
    endloop
  endfacet
  facet normal -0.406731 0.913548 0
    outer loop
      vertex -13.5 23.3827 60
      vertex -8.34346 25.6785 55
      vertex -13.5 23.3827 55
    endloop
  endfacet
  facet normal -0.86603 0.499992 0
    outer loop
      vertex -24.6657 10.9819 55
      vertex -21.8435 15.8702 60
      vertex -21.8435 15.8702 55
    endloop
  endfacet
  facet normal -0.86603 0.499992 0
    outer loop
      vertex -21.8435 15.8702 60
      vertex -24.6657 10.9819 55
      vertex -24.6657 10.9819 60
    endloop
  endfacet
  facet normal -0.58779 0.809013 0
    outer loop
      vertex -13.5 23.3827 55
      vertex -18.0665 20.0649 60
      vertex -13.5 23.3827 60
    endloop
  endfacet
  facet normal -0.58779 0.809013 0
    outer loop
      vertex -18.0665 20.0649 60
      vertex -13.5 23.3827 55
      vertex -18.0665 20.0649 55
    endloop
  endfacet
  facet normal 0.994522 -0.104526 0
    outer loop
      vertex 26.41 -5.61362 60
      vertex 27 0 55
      vertex 27 0 60
    endloop
  endfacet
  facet normal 0.994522 -0.104526 0
    outer loop
      vertex 27 0 55
      vertex 26.41 -5.61362 60
      vertex 26.41 -5.61362 55
    endloop
  endfacet
  facet normal 0.58779 0.809013 -0
    outer loop
      vertex 18.0665 20.0649 55
      vertex 13.5 23.3827 60
      vertex 18.0665 20.0649 60
    endloop
  endfacet
  facet normal 0.58779 0.809013 0
    outer loop
      vertex 13.5 23.3827 60
      vertex 18.0665 20.0649 55
      vertex 13.5 23.3827 55
    endloop
  endfacet
  facet normal 0 1 -0
    outer loop
      vertex 2.82227 26.8521 55
      vertex -2.82227 26.8521 60
      vertex 2.82227 26.8521 60
    endloop
  endfacet
  facet normal 0 1 0
    outer loop
      vertex -2.82227 26.8521 60
      vertex 2.82227 26.8521 55
      vertex -2.82227 26.8521 55
    endloop
  endfacet
  facet normal 0.406731 0.913548 -0
    outer loop
      vertex 13.5 23.3827 55
      vertex 8.34346 25.6785 60
      vertex 13.5 23.3827 60
    endloop
  endfacet
  facet normal 0.406731 0.913548 0
    outer loop
      vertex 8.34346 25.6785 60
      vertex 13.5 23.3827 55
      vertex 8.34346 25.6785 55
    endloop
  endfacet
  facet normal -0.994522 0.104526 0
    outer loop
      vertex -27 0 55
      vertex -26.41 5.61362 60
      vertex -26.41 5.61362 55
    endloop
  endfacet
  facet normal -0.994522 0.104526 0
    outer loop
      vertex -26.41 5.61362 60
      vertex -27 0 55
      vertex -27 0 60
    endloop
  endfacet
  facet normal -0.743138 0.669138 0
    outer loop
      vertex -21.8435 15.8702 55
      vertex -18.0665 20.0649 60
      vertex -18.0665 20.0649 55
    endloop
  endfacet
  facet normal -0.743138 0.669138 0
    outer loop
      vertex -18.0665 20.0649 60
      vertex -21.8435 15.8702 55
      vertex -21.8435 15.8702 60
    endloop
  endfacet
  facet normal -0.207918 0.978146 0
    outer loop
      vertex -2.82227 26.8521 55
      vertex -8.34346 25.6785 60
      vertex -2.82227 26.8521 60
    endloop
  endfacet
  facet normal -0.207918 0.978146 0
    outer loop
      vertex -8.34346 25.6785 60
      vertex -2.82227 26.8521 55
      vertex -8.34346 25.6785 55
    endloop
  endfacet
  facet normal 0.994522 0.104526 0
    outer loop
      vertex 27 0 60
      vertex 26.41 5.61362 55
      vertex 26.41 5.61362 60
    endloop
  endfacet
  facet normal 0.994522 0.104526 0
    outer loop
      vertex 26.41 5.61362 55
      vertex 27 0 60
      vertex 27 0 55
    endloop
  endfacet
  facet normal -0.207918 -0.978146 0
    outer loop
      vertex -8.34346 -25.6785 55
      vertex -2.82227 -26.8521 60
      vertex -8.34346 -25.6785 60
    endloop
  endfacet
  facet normal -0.207918 -0.978146 -0
    outer loop
      vertex -2.82227 -26.8521 60
      vertex -8.34346 -25.6785 55
      vertex -2.82227 -26.8521 55
    endloop
  endfacet
  facet normal 0.58779 -0.809013 0
    outer loop
      vertex 13.5 -23.3827 55
      vertex 18.0665 -20.0649 60
      vertex 13.5 -23.3827 60
    endloop
  endfacet
  facet normal 0.58779 -0.809013 0
    outer loop
      vertex 18.0665 -20.0649 60
      vertex 13.5 -23.3827 55
      vertex 18.0665 -20.0649 55
    endloop
  endfacet
  facet normal 0.951054 0.309023 0
    outer loop
      vertex 26.41 5.61362 60
      vertex 24.6657 10.9819 55
      vertex 24.6657 10.9819 60
    endloop
  endfacet
  facet normal 0.951054 0.309023 0
    outer loop
      vertex 24.6657 10.9819 55
      vertex 26.41 5.61362 60
      vertex 26.41 5.61362 55
    endloop
  endfacet
  facet normal -0 0 1
    outer loop
      vertex 19.27 3.13947 60
      vertex 27 0 60
      vertex 26.41 5.61362 60
    endloop
  endfacet
  facet normal -0 0 1
    outer loop
      vertex 18.2945 6.14172 60
      vertex 26.41 5.61362 60
      vertex 24.6657 10.9819 60
    endloop
  endfacet
  facet normal 0 0 1
    outer loop
      vertex 27 0 60
      vertex 19.27 3.13947 60
      vertex 19.6 0 60
    endloop
  endfacet
  facet normal 0 0 1
    outer loop
      vertex 16.7162 8.87556 60
      vertex 24.6657 10.9819 60
      vertex 21.8435 15.8702 60
    endloop
  endfacet
  facet normal 0 0 1
    outer loop
      vertex 19.27 -3.13947 60
      vertex 27 0 60
      vertex 19.6 0 60
    endloop
  endfacet
  facet normal 0 0 1
    outer loop
      vertex 18.2945 -6.14172 60
      vertex 26.41 -5.61362 60
      vertex 19.27 -3.13947 60
    endloop
  endfacet
  facet normal 0 0 1
    outer loop
      vertex 27 0 60
      vertex 19.27 -3.13947 60
      vertex 26.41 -5.61362 60
    endloop
  endfacet
  facet normal 0 0 1
    outer loop
      vertex 26.41 5.61362 60
      vertex 18.2945 6.14172 60
      vertex 19.27 3.13947 60
    endloop
  endfacet
  facet normal 0 0 1
    outer loop
      vertex 14.6039 11.2215 60
      vertex 21.8435 15.8702 60
      vertex 18.0665 20.0649 60
    endloop
  endfacet
  facet normal 0 0 1
    outer loop
      vertex 24.6657 10.9819 60
      vertex 16.7162 8.87556 60
      vertex 18.2945 6.14172 60
    endloop
  endfacet
  facet normal 0 0 1
    outer loop
      vertex 21.8435 15.8702 60
      vertex 14.6039 11.2215 60
      vertex 16.7162 8.87556 60
    endloop
  endfacet
  facet normal 0 0 1
    outer loop
      vertex 12.05 13.077 60
      vertex 18.0665 20.0649 60
      vertex 13.5 23.3827 60
    endloop
  endfacet
  facet normal 0 0 1
    outer loop
      vertex 18.0665 20.0649 60
      vertex 12.05 13.077 60
      vertex 14.6039 11.2215 60
    endloop
  endfacet
  facet normal 0 0 1
    outer loop
      vertex 13.5 23.3827 60
      vertex 9.16616 14.361 60
      vertex 12.05 13.077 60
    endloop
  endfacet
  facet normal 0 0 1
    outer loop
      vertex 4.5 17.0063 60
      vertex 13.5 23.3827 60
      vertex 8.34346 25.6785 60
    endloop
  endfacet
  facet normal 0 0 1
    outer loop
      vertex 13.5 23.3827 60
      vertex 4.5 17.0063 60
      vertex 9.16616 14.361 60
    endloop
  endfacet
  facet normal 0 0 1
    outer loop
      vertex 9.16616 14.361 60
      vertex 4.5 17.0063 60
      vertex 6.07838 15.0173 60
    endloop
  endfacet
  facet normal 0 0 1
    outer loop
      vertex 2.82227 26.8521 60
      vertex 4.5 17.0063 60
      vertex 8.34346 25.6785 60
    endloop
  endfacet
  facet normal 0 0 1
    outer loop
      vertex 2.82227 26.8521 60
      vertex 2.71256 17.0063 60
      vertex 4.5 17.0063 60
    endloop
  endfacet
  facet normal -0 0 1
    outer loop
      vertex -2.82227 26.8521 60
      vertex 2.71256 17.0063 60
      vertex 2.82227 26.8521 60
    endloop
  endfacet
  facet normal 0 0 1
    outer loop
      vertex 2.71256 17.0063 60
      vertex -2.82227 26.8521 60
      vertex -0.78419 16.2631 60
    endloop
  endfacet
  facet normal -0 0 1
    outer loop
      vertex -8.34346 25.6785 60
      vertex -0.78419 16.2631 60
      vertex -2.82227 26.8521 60
    endloop
  endfacet
  facet normal 0 0 1
    outer loop
      vertex -0.78419 16.2631 60
      vertex -8.34346 25.6785 60
      vertex -4.05 14.809 60
    endloop
  endfacet
  facet normal -0 0 1
    outer loop
      vertex -13.5 23.3827 60
      vertex -4.05 14.809 60
      vertex -8.34346 25.6785 60
    endloop
  endfacet
  facet normal 0 0 1
    outer loop
      vertex -4.05 14.809 60
      vertex -13.5 23.3827 60
      vertex -6.94213 12.7078 60
    endloop
  endfacet
  facet normal -0 0 1
    outer loop
      vertex -18.0665 20.0649 60
      vertex -6.94213 12.7078 60
      vertex -13.5 23.3827 60
    endloop
  endfacet
  facet normal 0 0 1
    outer loop
      vertex -6.94213 12.7078 60
      vertex -18.0665 20.0649 60
      vertex -9.33419 10.0511 60
    endloop
  endfacet
  facet normal 0 -0 1
    outer loop
      vertex -17.2 7.05 60
      vertex -9.33419 10.0511 60
      vertex -18.0665 20.0649 60
    endloop
  endfacet
  facet normal -0 0 1
    outer loop
      vertex -21.8435 15.8702 60
      vertex -17.2 7.05 60
      vertex -18.0665 20.0649 60
    endloop
  endfacet
  facet normal 0 0 1
    outer loop
      vertex -9.33419 10.0511 60
      vertex -17.2 7.05 60
      vertex -11.0669 7.05 60
    endloop
  endfacet
  facet normal 0 0 1
    outer loop
      vertex 26.41 -5.61362 60
      vertex 18.2945 -6.14172 60
      vertex 24.6657 -10.9819 60
    endloop
  endfacet
  facet normal -0 0 1
    outer loop
      vertex 16.7162 -8.87556 60
      vertex 24.6657 -10.9819 60
      vertex 18.2945 -6.14172 60
    endloop
  endfacet
  facet normal 0 0 1
    outer loop
      vertex 24.6657 -10.9819 60
      vertex 16.7162 -8.87556 60
      vertex 21.8435 -15.8702 60
    endloop
  endfacet
  facet normal -0 0 1
    outer loop
      vertex 14.6039 -11.2215 60
      vertex 21.8435 -15.8702 60
      vertex 16.7162 -8.87556 60
    endloop
  endfacet
  facet normal 0 0 1
    outer loop
      vertex 21.8435 -15.8702 60
      vertex 14.6039 -11.2215 60
      vertex 18.0665 -20.0649 60
    endloop
  endfacet
  facet normal -0 0 1
    outer loop
      vertex 12.05 -13.077 60
      vertex 18.0665 -20.0649 60
      vertex 14.6039 -11.2215 60
    endloop
  endfacet
  facet normal 0 0 1
    outer loop
      vertex 18.0665 -20.0649 60
      vertex 12.05 -13.077 60
      vertex 13.5 -23.3827 60
    endloop
  endfacet
  facet normal -0 0 1
    outer loop
      vertex 9.16616 -14.361 60
      vertex 13.5 -23.3827 60
      vertex 12.05 -13.077 60
    endloop
  endfacet
  facet normal -0 0 1
    outer loop
      vertex 4.5 -17.0063 60
      vertex 13.5 -23.3827 60
      vertex 9.16616 -14.361 60
    endloop
  endfacet
  facet normal 0 0 1
    outer loop
      vertex 4.5 -17.0063 60
      vertex 9.16616 -14.361 60
      vertex 6.07838 -15.0173 60
    endloop
  endfacet
  facet normal 0 0 1
    outer loop
      vertex 4.5 -17.0063 60
      vertex 6.07838 -15.0173 60
      vertex 4.5 -15.0173 60
    endloop
  endfacet
  facet normal 0 0 1
    outer loop
      vertex 13.5 -23.3827 60
      vertex 4.5 -17.0063 60
      vertex 8.34346 -25.6785 60
    endloop
  endfacet
  facet normal 0 0 1
    outer loop
      vertex 4.5 -17.0063 60
      vertex 2.82227 -26.8521 60
      vertex 8.34346 -25.6785 60
    endloop
  endfacet
  facet normal -0 0 1
    outer loop
      vertex 2.71256 -17.0063 60
      vertex 2.82227 -26.8521 60
      vertex 4.5 -17.0063 60
    endloop
  endfacet
  facet normal 0 0 1
    outer loop
      vertex -2.82227 -26.8521 60
      vertex 2.71256 -17.0063 60
      vertex -0.78419 -16.2631 60
    endloop
  endfacet
  facet normal 0 0 1
    outer loop
      vertex 2.71256 -17.0063 60
      vertex -2.82227 -26.8521 60
      vertex 2.82227 -26.8521 60
    endloop
  endfacet
  facet normal 0 0 1
    outer loop
      vertex -8.34346 -25.6785 60
      vertex -0.78419 -16.2631 60
      vertex -4.05 -14.809 60
    endloop
  endfacet
  facet normal 0 0 1
    outer loop
      vertex -13.5 -23.3827 60
      vertex -4.05 -14.809 60
      vertex -6.94213 -12.7078 60
    endloop
  endfacet
  facet normal 0 0 1
    outer loop
      vertex -0.78419 -16.2631 60
      vertex -8.34346 -25.6785 60
      vertex -2.82227 -26.8521 60
    endloop
  endfacet
  facet normal 0 0 1
    outer loop
      vertex -18.0665 -20.0649 60
      vertex -6.94213 -12.7078 60
      vertex -9.33419 -10.0511 60
    endloop
  endfacet
  facet normal -0 0 1
    outer loop
      vertex -17.2 -7.05 60
      vertex -9.33419 -10.0511 60
      vertex -11.0669 -7.05 60
    endloop
  endfacet
  facet normal 0 0 1
    outer loop
      vertex -4.05 -14.809 60
      vertex -13.5 -23.3827 60
      vertex -8.34346 -25.6785 60
    endloop
  endfacet
  facet normal 0 0 1
    outer loop
      vertex -9.33419 -10.0511 60
      vertex -17.2 -7.05 60
      vertex -18.0665 -20.0649 60
    endloop
  endfacet
  facet normal 0 0 1
    outer loop
      vertex -6.94213 -12.7078 60
      vertex -18.0665 -20.0649 60
      vertex -13.5 -23.3827 60
    endloop
  endfacet
  facet normal -0 0 1
    outer loop
      vertex -24.6657 10.9819 60
      vertex -17.2 7.05 60
      vertex -21.8435 15.8702 60
    endloop
  endfacet
  facet normal 0 0 1
    outer loop
      vertex -26.41 5.61362 60
      vertex -17.2 7.05 60
      vertex -24.6657 10.9819 60
    endloop
  endfacet
  facet normal 0 0 1
    outer loop
      vertex -17.2 -7.05 60
      vertex -21.8435 -15.8702 60
      vertex -18.0665 -20.0649 60
    endloop
  endfacet
  facet normal 0 0 1
    outer loop
      vertex -27 0 60
      vertex -17.2 7.05 60
      vertex -26.41 5.61362 60
    endloop
  endfacet
  facet normal 0 0 1
    outer loop
      vertex -17.2 -7.05 60
      vertex -24.6657 -10.9819 60
      vertex -21.8435 -15.8702 60
    endloop
  endfacet
  facet normal 0 0 1
    outer loop
      vertex -17.2 7.05 60
      vertex -27 0 60
      vertex -17.2 -7.05 60
    endloop
  endfacet
  facet normal 0 0 1
    outer loop
      vertex -17.2 -7.05 60
      vertex -26.41 -5.61362 60
      vertex -24.6657 -10.9819 60
    endloop
  endfacet
  facet normal 0 0 1
    outer loop
      vertex -17.2 -7.05 60
      vertex -27 0 60
      vertex -26.41 -5.61362 60
    endloop
  endfacet
  facet normal 0 0 1
    outer loop
      vertex 6.07838 15.0173 60
      vertex 4.5 17.0063 60
      vertex 4.5 15.0173 60
    endloop
  endfacet
  facet normal 0.951054 -0.309023 0
    outer loop
      vertex 24.6657 -10.9819 60
      vertex 26.41 -5.61362 55
      vertex 26.41 -5.61362 60
    endloop
  endfacet
  facet normal 0.951054 -0.309023 0
    outer loop
      vertex 26.41 -5.61362 55
      vertex 24.6657 -10.9819 60
      vertex 24.6657 -10.9819 55
    endloop
  endfacet
  facet normal 0.86603 -0.499992 0
    outer loop
      vertex 21.8435 -15.8702 60
      vertex 24.6657 -10.9819 55
      vertex 24.6657 -10.9819 60
    endloop
  endfacet
  facet normal 0.86603 -0.499992 0
    outer loop
      vertex 24.6657 -10.9819 55
      vertex 21.8435 -15.8702 60
      vertex 21.8435 -15.8702 55
    endloop
  endfacet
  facet normal -0.994522 -0.104526 0
    outer loop
      vertex -26.41 -5.61362 55
      vertex -27 0 60
      vertex -27 0 55
    endloop
  endfacet
  facet normal -0.994522 -0.104526 0
    outer loop
      vertex -27 0 60
      vertex -26.41 -5.61362 55
      vertex -26.41 -5.61362 60
    endloop
  endfacet
  facet normal -0.86603 -0.499992 0
    outer loop
      vertex -21.8435 -15.8702 55
      vertex -24.6657 -10.9819 60
      vertex -24.6657 -10.9819 55
    endloop
  endfacet
  facet normal -0.86603 -0.499992 0
    outer loop
      vertex -24.6657 -10.9819 60
      vertex -21.8435 -15.8702 55
      vertex -21.8435 -15.8702 60
    endloop
  endfacet
  facet normal 0.207918 -0.978146 0
    outer loop
      vertex 2.82227 -26.8521 55
      vertex 8.34346 -25.6785 60
      vertex 2.82227 -26.8521 60
    endloop
  endfacet
  facet normal 0.207918 -0.978146 0
    outer loop
      vertex 8.34346 -25.6785 60
      vertex 2.82227 -26.8521 55
      vertex 8.34346 -25.6785 55
    endloop
  endfacet
  facet normal 0.406731 -0.913548 0
    outer loop
      vertex 8.34346 -25.6785 55
      vertex 13.5 -23.3827 60
      vertex 8.34346 -25.6785 60
    endloop
  endfacet
  facet normal 0.406731 -0.913548 0
    outer loop
      vertex 13.5 -23.3827 60
      vertex 8.34346 -25.6785 55
      vertex 13.5 -23.3827 55
    endloop
  endfacet
  facet normal 0.743138 -0.669138 0
    outer loop
      vertex 18.0665 -20.0649 60
      vertex 21.8435 -15.8702 55
      vertex 21.8435 -15.8702 60
    endloop
  endfacet
  facet normal 0.743138 -0.669138 0
    outer loop
      vertex 21.8435 -15.8702 55
      vertex 18.0665 -20.0649 60
      vertex 18.0665 -20.0649 55
    endloop
  endfacet
  facet normal -0.58779 -0.809013 0
    outer loop
      vertex -18.0665 -20.0649 55
      vertex -13.5 -23.3827 60
      vertex -18.0665 -20.0649 60
    endloop
  endfacet
  facet normal -0.58779 -0.809013 -0
    outer loop
      vertex -13.5 -23.3827 60
      vertex -18.0665 -20.0649 55
      vertex -13.5 -23.3827 55
    endloop
  endfacet
  facet normal 0 -1 0
    outer loop
      vertex -2.82227 -26.8521 55
      vertex 2.82227 -26.8521 60
      vertex -2.82227 -26.8521 60
    endloop
  endfacet
  facet normal 0 -1 -0
    outer loop
      vertex 2.82227 -26.8521 60
      vertex -2.82227 -26.8521 55
      vertex 2.82227 -26.8521 55
    endloop
  endfacet
  facet normal 0 0 -1
    outer loop
      vertex 22.25 0 55
      vertex 27 0 55
      vertex 26.41 -5.61362 55
    endloop
  endfacet
  facet normal 0 0 -1
    outer loop
      vertex 21.7638 -4.62603 55
      vertex 26.41 -5.61362 55
      vertex 24.6657 -10.9819 55
    endloop
  endfacet
  facet normal 0 0 -1
    outer loop
      vertex 27 0 55
      vertex 22.25 0 55
      vertex 26.41 5.61362 55
    endloop
  endfacet
  facet normal 0 0 -1
    outer loop
      vertex 21.7638 4.62603 55
      vertex 26.41 5.61362 55
      vertex 22.25 0 55
    endloop
  endfacet
  facet normal 0 0 -1
    outer loop
      vertex 20.3264 -9.04989 55
      vertex 24.6657 -10.9819 55
      vertex 21.8435 -15.8702 55
    endloop
  endfacet
  facet normal 0 0 -1
    outer loop
      vertex 26.41 -5.61362 55
      vertex 21.7638 -4.62603 55
      vertex 22.25 0 55
    endloop
  endfacet
  facet normal 0 0 -1
    outer loop
      vertex 24.6657 -10.9819 55
      vertex 20.3264 -9.04989 55
      vertex 21.7638 -4.62603 55
    endloop
  endfacet
  facet normal 0 0 -1
    outer loop
      vertex 18.0006 -13.0782 55
      vertex 21.8435 -15.8702 55
      vertex 18.0665 -20.0649 55
    endloop
  endfacet
  facet normal 0 0 -1
    outer loop
      vertex 21.8435 -15.8702 55
      vertex 18.0006 -13.0782 55
      vertex 20.3264 -9.04989 55
    endloop
  endfacet
  facet normal 0 0 -1
    outer loop
      vertex 18.0665 -20.0649 55
      vertex 14.8882 -16.535 55
      vertex 18.0006 -13.0782 55
    endloop
  endfacet
  facet normal 0 0 -1
    outer loop
      vertex 13.5 -23.3827 55
      vertex 14.8882 -16.535 55
      vertex 18.0665 -20.0649 55
    endloop
  endfacet
  facet normal 0 0 -1
    outer loop
      vertex 13.5 -23.3827 55
      vertex 11.125 -19.2691 55
      vertex 14.8882 -16.535 55
    endloop
  endfacet
  facet normal 0 0 -1
    outer loop
      vertex 8.34346 -25.6785 55
      vertex 11.125 -19.2691 55
      vertex 13.5 -23.3827 55
    endloop
  endfacet
  facet normal 0 0 -1
    outer loop
      vertex 8.34346 -25.6785 55
      vertex 6.87563 -21.161 55
      vertex 11.125 -19.2691 55
    endloop
  endfacet
  facet normal 0 0 -1
    outer loop
      vertex 2.82227 -26.8521 55
      vertex 6.87563 -21.161 55
      vertex 8.34346 -25.6785 55
    endloop
  endfacet
  facet normal 0 0 -1
    outer loop
      vertex 2.82227 -26.8521 55
      vertex 2.32576 -22.1281 55
      vertex 6.87563 -21.161 55
    endloop
  endfacet
  facet normal 0 0 -1
    outer loop
      vertex 2.82227 -26.8521 55
      vertex -2.32576 -22.1281 55
      vertex 2.32576 -22.1281 55
    endloop
  endfacet
  facet normal 0 0 -1
    outer loop
      vertex -2.82227 -26.8521 55
      vertex -2.32576 -22.1281 55
      vertex 2.82227 -26.8521 55
    endloop
  endfacet
  facet normal 0 0 -1
    outer loop
      vertex -2.82227 -26.8521 55
      vertex -6.87563 -21.161 55
      vertex -2.32576 -22.1281 55
    endloop
  endfacet
  facet normal 0 0 -1
    outer loop
      vertex -8.34346 -25.6785 55
      vertex -6.87563 -21.161 55
      vertex -2.82227 -26.8521 55
    endloop
  endfacet
  facet normal 0 0 -1
    outer loop
      vertex -8.34346 -25.6785 55
      vertex -11.125 -19.2691 55
      vertex -6.87563 -21.161 55
    endloop
  endfacet
  facet normal 0 0 -1
    outer loop
      vertex -13.5 -23.3827 55
      vertex -11.125 -19.2691 55
      vertex -8.34346 -25.6785 55
    endloop
  endfacet
  facet normal 0 0 -1
    outer loop
      vertex -13.5 -23.3827 55
      vertex -14.8882 -16.535 55
      vertex -11.125 -19.2691 55
    endloop
  endfacet
  facet normal 0 0 -1
    outer loop
      vertex -18.0665 -20.0649 55
      vertex -14.8882 -16.535 55
      vertex -13.5 -23.3827 55
    endloop
  endfacet
  facet normal -0 0 -1
    outer loop
      vertex -14.8882 -16.535 55
      vertex -18.0665 -20.0649 55
      vertex -18.0006 -13.0782 55
    endloop
  endfacet
  facet normal 0 0 -1
    outer loop
      vertex -21.8435 -15.8702 55
      vertex -18.0006 -13.0782 55
      vertex -18.0665 -20.0649 55
    endloop
  endfacet
  facet normal -0 0 -1
    outer loop
      vertex -18.0006 -13.0782 55
      vertex -21.8435 -15.8702 55
      vertex -20.3264 -9.04989 55
    endloop
  endfacet
  facet normal 0 0 -1
    outer loop
      vertex -24.6657 -10.9819 55
      vertex -20.3264 -9.04989 55
      vertex -21.8435 -15.8702 55
    endloop
  endfacet
  facet normal -0 0 -1
    outer loop
      vertex -20.3264 -9.04989 55
      vertex -24.6657 -10.9819 55
      vertex -21.7638 -4.62603 55
    endloop
  endfacet
  facet normal 0 0 -1
    outer loop
      vertex -26.41 -5.61362 55
      vertex -21.7638 -4.62603 55
      vertex -24.6657 -10.9819 55
    endloop
  endfacet
  facet normal -0 0 -1
    outer loop
      vertex 26.41 5.61362 55
      vertex 21.7638 4.62603 55
      vertex 24.6657 10.9819 55
    endloop
  endfacet
  facet normal 0 0 -1
    outer loop
      vertex 20.3264 9.04989 55
      vertex 24.6657 10.9819 55
      vertex 21.7638 4.62603 55
    endloop
  endfacet
  facet normal -0 0 -1
    outer loop
      vertex 24.6657 10.9819 55
      vertex 20.3264 9.04989 55
      vertex 21.8435 15.8702 55
    endloop
  endfacet
  facet normal 0 0 -1
    outer loop
      vertex 18.0006 13.0782 55
      vertex 21.8435 15.8702 55
      vertex 20.3264 9.04989 55
    endloop
  endfacet
  facet normal -0 0 -1
    outer loop
      vertex 21.8435 15.8702 55
      vertex 18.0006 13.0782 55
      vertex 18.0665 20.0649 55
    endloop
  endfacet
  facet normal 0 0 -1
    outer loop
      vertex 14.8882 16.535 55
      vertex 18.0665 20.0649 55
      vertex 18.0006 13.0782 55
    endloop
  endfacet
  facet normal 0 0 -1
    outer loop
      vertex 14.8882 16.535 55
      vertex 13.5 23.3827 55
      vertex 18.0665 20.0649 55
    endloop
  endfacet
  facet normal 0 0 -1
    outer loop
      vertex 11.125 19.2691 55
      vertex 13.5 23.3827 55
      vertex 14.8882 16.535 55
    endloop
  endfacet
  facet normal 0 0 -1
    outer loop
      vertex 11.125 19.2691 55
      vertex 8.34346 25.6785 55
      vertex 13.5 23.3827 55
    endloop
  endfacet
  facet normal 0 0 -1
    outer loop
      vertex 6.87563 21.161 55
      vertex 8.34346 25.6785 55
      vertex 11.125 19.2691 55
    endloop
  endfacet
  facet normal 0 0 -1
    outer loop
      vertex 6.87563 21.161 55
      vertex 2.82227 26.8521 55
      vertex 8.34346 25.6785 55
    endloop
  endfacet
  facet normal 0 0 -1
    outer loop
      vertex 2.32576 22.1281 55
      vertex 2.82227 26.8521 55
      vertex 6.87563 21.161 55
    endloop
  endfacet
  facet normal 0 0 -1
    outer loop
      vertex -2.32576 22.1281 55
      vertex 2.82227 26.8521 55
      vertex 2.32576 22.1281 55
    endloop
  endfacet
  facet normal 0 0 -1
    outer loop
      vertex -2.32576 22.1281 55
      vertex -2.82227 26.8521 55
      vertex 2.82227 26.8521 55
    endloop
  endfacet
  facet normal 0 0 -1
    outer loop
      vertex -6.87563 21.161 55
      vertex -2.82227 26.8521 55
      vertex -2.32576 22.1281 55
    endloop
  endfacet
  facet normal 0 0 -1
    outer loop
      vertex -6.87563 21.161 55
      vertex -8.34346 25.6785 55
      vertex -2.82227 26.8521 55
    endloop
  endfacet
  facet normal 0 0 -1
    outer loop
      vertex -11.125 19.2691 55
      vertex -8.34346 25.6785 55
      vertex -6.87563 21.161 55
    endloop
  endfacet
  facet normal 0 0 -1
    outer loop
      vertex -11.125 19.2691 55
      vertex -13.5 23.3827 55
      vertex -8.34346 25.6785 55
    endloop
  endfacet
  facet normal 0 0 -1
    outer loop
      vertex -14.8882 16.535 55
      vertex -13.5 23.3827 55
      vertex -11.125 19.2691 55
    endloop
  endfacet
  facet normal 0 0 -1
    outer loop
      vertex -18.0665 20.0649 55
      vertex -14.8882 16.535 55
      vertex -18.0006 13.0782 55
    endloop
  endfacet
  facet normal 0 0 -1
    outer loop
      vertex -14.8882 16.535 55
      vertex -18.0665 20.0649 55
      vertex -13.5 23.3827 55
    endloop
  endfacet
  facet normal 0 0 -1
    outer loop
      vertex -21.8435 15.8702 55
      vertex -18.0006 13.0782 55
      vertex -20.3264 9.04989 55
    endloop
  endfacet
  facet normal 0 0 -1
    outer loop
      vertex -24.6657 10.9819 55
      vertex -20.3264 9.04989 55
      vertex -21.7638 4.62603 55
    endloop
  endfacet
  facet normal 0 0 -1
    outer loop
      vertex -18.0006 13.0782 55
      vertex -21.8435 15.8702 55
      vertex -18.0665 20.0649 55
    endloop
  endfacet
  facet normal 0 0 -1
    outer loop
      vertex -26.41 5.61362 55
      vertex -21.7638 4.62603 55
      vertex -22.25 0 55
    endloop
  endfacet
  facet normal -0 0 -1
    outer loop
      vertex -21.7638 -4.62603 55
      vertex -26.41 -5.61362 55
      vertex -22.25 0 55
    endloop
  endfacet
  facet normal 0 0 -1
    outer loop
      vertex -20.3264 9.04989 55
      vertex -24.6657 10.9819 55
      vertex -21.8435 15.8702 55
    endloop
  endfacet
  facet normal 0 0 -1
    outer loop
      vertex -27 0 55
      vertex -22.25 0 55
      vertex -26.41 -5.61362 55
    endloop
  endfacet
  facet normal 0 0 -1
    outer loop
      vertex -21.7638 4.62603 55
      vertex -26.41 5.61362 55
      vertex -24.6657 10.9819 55
    endloop
  endfacet
  facet normal 0 0 -1
    outer loop
      vertex -22.25 0 55
      vertex -27 0 55
      vertex -26.41 5.61362 55
    endloop
  endfacet
  facet normal -0.951054 -0.309023 0
    outer loop
      vertex -24.6657 -10.9819 55
      vertex -26.41 -5.61362 60
      vertex -26.41 -5.61362 55
    endloop
  endfacet
  facet normal -0.951054 -0.309023 0
    outer loop
      vertex -26.41 -5.61362 60
      vertex -24.6657 -10.9819 55
      vertex -24.6657 -10.9819 60
    endloop
  endfacet
  facet normal -0.743138 -0.669138 0
    outer loop
      vertex -18.0665 -20.0649 55
      vertex -21.8435 -15.8702 60
      vertex -21.8435 -15.8702 55
    endloop
  endfacet
  facet normal -0.743138 -0.669138 0
    outer loop
      vertex -21.8435 -15.8702 60
      vertex -18.0665 -20.0649 55
      vertex -18.0665 -20.0649 60
    endloop
  endfacet
  facet normal -0.406731 -0.913548 0
    outer loop
      vertex -13.5 -23.3827 55
      vertex -8.34346 -25.6785 60
      vertex -13.5 -23.3827 60
    endloop
  endfacet
  facet normal -0.406731 -0.913548 -0
    outer loop
      vertex -8.34346 -25.6785 60
      vertex -13.5 -23.3827 55
      vertex -8.34346 -25.6785 55
    endloop
  endfacet
  facet normal 0.86602 0.500009 0
    outer loop
      vertex 20.3264 9.04989 55
      vertex 18.0006 13.0782 0
      vertex 18.0006 13.0782 55
    endloop
  endfacet
  facet normal 0.86602 0.500009 0
    outer loop
      vertex 18.0006 13.0782 0
      vertex 20.3264 9.04989 55
      vertex 20.3264 9.04989 0
    endloop
  endfacet
  facet normal -0.951058 0.309013 0
    outer loop
      vertex -21.3 6.05341 11.3965
      vertex -20.3264 9.04989 0
      vertex -21.3 6.05341 4.60349
    endloop
  endfacet
  facet normal -0.951051 0.309034 1.53942e-05
    outer loop
      vertex -20.3264 9.04989 0
      vertex -21.548 5.29025 3.41598
      vertex -21.3 6.05341 4.60349
    endloop
  endfacet
  facet normal -0.951056 0.309017 -5.08763e-06
    outer loop
      vertex -21.7638 4.62603 0
      vertex -21.548 5.29025 3.41598
      vertex -20.3264 9.04989 0
    endloop
  endfacet
  facet normal -0.951064 0.308993 0
    outer loop
      vertex -21.548 5.29025 3.41598
      vertex -21.7638 4.62603 0
      vertex -21.7638 4.62603 2.84043
    endloop
  endfacet
  facet normal -0.951058 0.309013 0
    outer loop
      vertex -20.3264 9.04989 0
      vertex -21.3 6.05341 11.3965
      vertex -20.3264 9.04989 55
    endloop
  endfacet
  facet normal -0.951045 0.309051 -2.95537e-06
    outer loop
      vertex -21.548 5.29025 12.584
      vertex -20.3264 9.04989 55
      vertex -21.3 6.05341 11.3965
    endloop
  endfacet
  facet normal -0.951064 0.308995 2.53428e-06
    outer loop
      vertex -21.7638 4.62603 13.1596
      vertex -20.3264 9.04989 55
      vertex -21.548 5.29025 12.584
    endloop
  endfacet
  facet normal -0.951056 0.309017 0
    outer loop
      vertex -20.3264 9.04989 55
      vertex -21.7638 4.62603 13.1596
      vertex -21.7638 4.62603 55
    endloop
  endfacet
  facet normal 0.743157 0.669117 0
    outer loop
      vertex 18.0006 13.0782 55
      vertex 14.8882 16.535 0
      vertex 14.8882 16.535 55
    endloop
  endfacet
  facet normal 0.743157 0.669117 0
    outer loop
      vertex 14.8882 16.535 0
      vertex 18.0006 13.0782 55
      vertex 18.0006 13.0782 0
    endloop
  endfacet
  facet normal 0.207911 0.978148 -0
    outer loop
      vertex 6.87563 21.161 0
      vertex 2.32576 22.1281 55
      vertex 6.87563 21.161 55
    endloop
  endfacet
  facet normal 0.207911 0.978148 0
    outer loop
      vertex 2.32576 22.1281 55
      vertex 6.87563 21.161 0
      vertex 2.32576 22.1281 0
    endloop
  endfacet
  facet normal 0.406729 0.913549 -0
    outer loop
      vertex 11.125 19.2691 0
      vertex 6.87563 21.161 55
      vertex 11.125 19.2691 55
    endloop
  endfacet
  facet normal 0.406729 0.913549 0
    outer loop
      vertex 6.87563 21.161 55
      vertex 11.125 19.2691 0
      vertex 6.87563 21.161 0
    endloop
  endfacet
  facet normal -0.406729 0.913549 0
    outer loop
      vertex -6.87563 21.161 0
      vertex -11.125 19.2691 55
      vertex -6.87563 21.161 55
    endloop
  endfacet
  facet normal -0.406729 0.913549 0
    outer loop
      vertex -11.125 19.2691 55
      vertex -6.87563 21.161 0
      vertex -11.125 19.2691 0
    endloop
  endfacet
  facet normal -0.86602 0.500009 0
    outer loop
      vertex -20.3264 9.04989 0
      vertex -18.0006 13.0782 55
      vertex -18.0006 13.0782 0
    endloop
  endfacet
  facet normal -0.86602 0.500009 0
    outer loop
      vertex -18.0006 13.0782 55
      vertex -20.3264 9.04989 0
      vertex -20.3264 9.04989 55
    endloop
  endfacet
  facet normal -0.587782 0.80902 0
    outer loop
      vertex -11.125 19.2691 0
      vertex -14.8882 16.535 55
      vertex -11.125 19.2691 55
    endloop
  endfacet
  facet normal -0.587782 0.80902 0
    outer loop
      vertex -14.8882 16.535 55
      vertex -11.125 19.2691 0
      vertex -14.8882 16.535 0
    endloop
  endfacet
  facet normal 0.994522 -0.104525 0
    outer loop
      vertex 21.7638 -4.62603 55
      vertex 22.25 0 0
      vertex 22.25 0 55
    endloop
  endfacet
  facet normal 0.994522 -0.104525 0
    outer loop
      vertex 22.25 0 0
      vertex 21.7638 -4.62603 55
      vertex 21.7638 -4.62603 0
    endloop
  endfacet
  facet normal 0.207911 -0.978148 0
    outer loop
      vertex 2.32576 -22.1281 0
      vertex 6.87563 -21.161 55
      vertex 2.32576 -22.1281 55
    endloop
  endfacet
  facet normal 0.207911 -0.978148 0
    outer loop
      vertex 6.87563 -21.161 55
      vertex 2.32576 -22.1281 0
      vertex 6.87563 -21.161 0
    endloop
  endfacet
  facet normal 0 1 -0
    outer loop
      vertex 2.32576 22.1281 0
      vertex -2.32576 22.1281 55
      vertex 2.32576 22.1281 55
    endloop
  endfacet
  facet normal 0 1 0
    outer loop
      vertex -2.32576 22.1281 55
      vertex 2.32576 22.1281 0
      vertex -2.32576 22.1281 0
    endloop
  endfacet
  facet normal 0.587782 0.80902 -0
    outer loop
      vertex 14.8882 16.535 0
      vertex 11.125 19.2691 55
      vertex 14.8882 16.535 55
    endloop
  endfacet
  facet normal 0.587782 0.80902 0
    outer loop
      vertex 11.125 19.2691 55
      vertex 14.8882 16.535 0
      vertex 11.125 19.2691 0
    endloop
  endfacet
  facet normal -0.994528 0.104469 0
    outer loop
      vertex -21.7638 4.62603 0
      vertex -21.8522 3.78448 2.11123
      vertex -21.7638 4.62603 2.84043
    endloop
  endfacet
  facet normal -0.994522 0.104526 2.27663e-05
    outer loop
      vertex -21.7638 4.62603 0
      vertex -22.0427 1.97213 1.28355
      vertex -21.8522 3.78448 2.11123
    endloop
  endfacet
  facet normal -0.994522 0.104525 2.11731e-05
    outer loop
      vertex -22.25 0 0
      vertex -22.0427 1.97213 1.28355
      vertex -21.7638 4.62603 0
    endloop
  endfacet
  facet normal -0.994521 0.104539 0
    outer loop
      vertex -22.0427 1.97213 1.28355
      vertex -22.25 0 0
      vertex -22.25 0 1
    endloop
  endfacet
  facet normal -0.994528 0.104469 0
    outer loop
      vertex -21.8522 3.78448 13.8888
      vertex -21.7638 4.62603 55
      vertex -21.7638 4.62603 13.1596
    endloop
  endfacet
  facet normal -0.994521 0.104536 -1.36917e-06
    outer loop
      vertex -22.0427 1.97213 14.7165
      vertex -21.7638 4.62603 55
      vertex -21.8522 3.78448 13.8888
    endloop
  endfacet
  facet normal -0.994521 0.104539 -1.56765e-06
    outer loop
      vertex -22.25 0 15
      vertex -21.7638 4.62603 55
      vertex -22.0427 1.97213 14.7165
    endloop
  endfacet
  facet normal -0.994522 0.104525 0
    outer loop
      vertex -21.7638 4.62603 55
      vertex -22.25 0 15
      vertex -22.25 0 55
    endloop
  endfacet
  facet normal -0.743157 0.669117 0
    outer loop
      vertex -18.0006 13.0782 0
      vertex -14.8882 16.535 55
      vertex -14.8882 16.535 0
    endloop
  endfacet
  facet normal -0.743157 0.669117 0
    outer loop
      vertex -14.8882 16.535 55
      vertex -18.0006 13.0782 0
      vertex -18.0006 13.0782 55
    endloop
  endfacet
  facet normal -0.207911 0.978148 0
    outer loop
      vertex -2.32576 22.1281 0
      vertex -6.87563 21.161 55
      vertex -2.32576 22.1281 55
    endloop
  endfacet
  facet normal -0.207911 0.978148 0
    outer loop
      vertex -6.87563 21.161 55
      vertex -2.32576 22.1281 0
      vertex -6.87563 21.161 0
    endloop
  endfacet
  facet normal 0.994522 0.104525 0
    outer loop
      vertex 22.25 0 55
      vertex 21.7638 4.62603 0
      vertex 21.7638 4.62603 55
    endloop
  endfacet
  facet normal 0.994522 0.104525 0
    outer loop
      vertex 21.7638 4.62603 0
      vertex 22.25 0 55
      vertex 22.25 0 0
    endloop
  endfacet
  facet normal 0.951056 -0.309017 0
    outer loop
      vertex 20.3264 -9.04989 55
      vertex 21.7638 -4.62603 0
      vertex 21.7638 -4.62603 55
    endloop
  endfacet
  facet normal 0.951056 -0.309017 0
    outer loop
      vertex 21.7638 -4.62603 0
      vertex 20.3264 -9.04989 55
      vertex 20.3264 -9.04989 0
    endloop
  endfacet
  facet normal -0.587782 -0.80902 0
    outer loop
      vertex -14.8882 -16.535 0
      vertex -11.125 -19.2691 55
      vertex -14.8882 -16.535 55
    endloop
  endfacet
  facet normal -0.587782 -0.80902 -0
    outer loop
      vertex -11.125 -19.2691 55
      vertex -14.8882 -16.535 0
      vertex -11.125 -19.2691 0
    endloop
  endfacet
  facet normal -0.86602 -0.500009 0
    outer loop
      vertex -18.0006 -13.0782 0
      vertex -20.3264 -9.04989 55
      vertex -20.3264 -9.04989 0
    endloop
  endfacet
  facet normal -0.86602 -0.500009 0
    outer loop
      vertex -20.3264 -9.04989 55
      vertex -18.0006 -13.0782 0
      vertex -18.0006 -13.0782 55
    endloop
  endfacet
  facet normal 0.587782 -0.80902 0
    outer loop
      vertex 11.125 -19.2691 0
      vertex 14.8882 -16.535 55
      vertex 11.125 -19.2691 55
    endloop
  endfacet
  facet normal 0.587782 -0.80902 0
    outer loop
      vertex 14.8882 -16.535 55
      vertex 11.125 -19.2691 0
      vertex 14.8882 -16.535 0
    endloop
  endfacet
  facet normal 0.951056 0.309017 0
    outer loop
      vertex 21.7638 4.62603 55
      vertex 20.3264 9.04989 0
      vertex 20.3264 9.04989 55
    endloop
  endfacet
  facet normal 0.951056 0.309017 0
    outer loop
      vertex 20.3264 9.04989 0
      vertex 21.7638 4.62603 55
      vertex 21.7638 4.62603 0
    endloop
  endfacet
  facet normal 0.86602 -0.500009 0
    outer loop
      vertex 18.0006 -13.0782 55
      vertex 20.3264 -9.04989 0
      vertex 20.3264 -9.04989 55
    endloop
  endfacet
  facet normal 0.86602 -0.500009 0
    outer loop
      vertex 20.3264 -9.04989 0
      vertex 18.0006 -13.0782 55
      vertex 18.0006 -13.0782 0
    endloop
  endfacet
  facet normal -0.994521 -0.104539 0
    outer loop
      vertex -22.25 0 0
      vertex -22.0427 -1.97213 1.28355
      vertex -22.25 0 1
    endloop
  endfacet
  facet normal -0.994522 -0.104525 2.11731e-05
    outer loop
      vertex -21.7638 -4.62603 0
      vertex -22.0427 -1.97213 1.28355
      vertex -22.25 0 0
    endloop
  endfacet
  facet normal -0.994522 -0.104526 2.27663e-05
    outer loop
      vertex -22.0427 -1.97213 1.28355
      vertex -21.7638 -4.62603 0
      vertex -21.8522 -3.78448 2.11123
    endloop
  endfacet
  facet normal -0.994528 -0.104469 0
    outer loop
      vertex -21.8522 -3.78448 2.11123
      vertex -21.7638 -4.62603 0
      vertex -21.7638 -4.62603 2.84043
    endloop
  endfacet
  facet normal -0.994521 -0.104539 -1.56765e-06
    outer loop
      vertex -21.7638 -4.62603 55
      vertex -22.25 0 15
      vertex -22.0427 -1.97213 14.7165
    endloop
  endfacet
  facet normal -0.994521 -0.104536 -1.36917e-06
    outer loop
      vertex -21.7638 -4.62603 55
      vertex -22.0427 -1.97213 14.7165
      vertex -21.8522 -3.78448 13.8888
    endloop
  endfacet
  facet normal -0.994528 -0.104469 -0
    outer loop
      vertex -21.7638 -4.62603 55
      vertex -21.8522 -3.78448 13.8888
      vertex -21.7638 -4.62603 13.1596
    endloop
  endfacet
  facet normal -0.994522 -0.104525 0
    outer loop
      vertex -22.25 0 15
      vertex -21.7638 -4.62603 55
      vertex -22.25 0 55
    endloop
  endfacet
  facet normal -0.743157 -0.669117 0
    outer loop
      vertex -14.8882 -16.535 0
      vertex -18.0006 -13.0782 55
      vertex -18.0006 -13.0782 0
    endloop
  endfacet
  facet normal -0.743157 -0.669117 0
    outer loop
      vertex -18.0006 -13.0782 55
      vertex -14.8882 -16.535 0
      vertex -14.8882 -16.535 55
    endloop
  endfacet
  facet normal 0.406729 -0.913549 0
    outer loop
      vertex 6.87563 -21.161 0
      vertex 11.125 -19.2691 55
      vertex 6.87563 -21.161 55
    endloop
  endfacet
  facet normal 0.406729 -0.913549 0
    outer loop
      vertex 11.125 -19.2691 55
      vertex 6.87563 -21.161 0
      vertex 11.125 -19.2691 0
    endloop
  endfacet
  facet normal -0.406729 -0.913549 0
    outer loop
      vertex -11.125 -19.2691 0
      vertex -6.87563 -21.161 55
      vertex -11.125 -19.2691 55
    endloop
  endfacet
  facet normal -0.406729 -0.913549 -0
    outer loop
      vertex -6.87563 -21.161 55
      vertex -11.125 -19.2691 0
      vertex -6.87563 -21.161 0
    endloop
  endfacet
  facet normal 0 -1 0
    outer loop
      vertex -2.32576 -22.1281 0
      vertex 2.32576 -22.1281 55
      vertex -2.32576 -22.1281 55
    endloop
  endfacet
  facet normal 0 -1 -0
    outer loop
      vertex 2.32576 -22.1281 55
      vertex -2.32576 -22.1281 0
      vertex 2.32576 -22.1281 0
    endloop
  endfacet
  facet normal 0 0 -1
    outer loop
      vertex 19.27 -3.13947 0
      vertex 22.25 0 0
      vertex 21.7638 -4.62603 0
    endloop
  endfacet
  facet normal 0 0 -1
    outer loop
      vertex 18.2945 -6.14172 0
      vertex 21.7638 -4.62603 0
      vertex 20.3264 -9.04989 0
    endloop
  endfacet
  facet normal -0 0 -1
    outer loop
      vertex 22.25 0 0
      vertex 19.27 -3.13947 0
      vertex 19.6 0 0
    endloop
  endfacet
  facet normal 0 0 -1
    outer loop
      vertex 22.25 0 0
      vertex 19.27 3.13947 0
      vertex 21.7638 4.62603 0
    endloop
  endfacet
  facet normal 0 0 -1
    outer loop
      vertex 19.27 3.13947 0
      vertex 22.25 0 0
      vertex 19.6 0 0
    endloop
  endfacet
  facet normal -0 0 -1
    outer loop
      vertex 21.7638 -4.62603 0
      vertex 18.2945 -6.14172 0
      vertex 19.27 -3.13947 0
    endloop
  endfacet
  facet normal 0 0 -1
    outer loop
      vertex 16.7162 -8.87556 0
      vertex 20.3264 -9.04989 0
      vertex 18.0006 -13.0782 0
    endloop
  endfacet
  facet normal 0 0 -1
    outer loop
      vertex 20.3264 -9.04989 0
      vertex 16.7162 -8.87556 0
      vertex 18.2945 -6.14172 0
    endloop
  endfacet
  facet normal 0 0 -1
    outer loop
      vertex 14.6039 -11.2215 0
      vertex 18.0006 -13.0782 0
      vertex 14.8882 -16.535 0
    endloop
  endfacet
  facet normal 0 0 -1
    outer loop
      vertex 18.0006 -13.0782 0
      vertex 14.6039 -11.2215 0
      vertex 16.7162 -8.87556 0
    endloop
  endfacet
  facet normal 0 0 -1
    outer loop
      vertex 14.8882 -16.535 0
      vertex 12.05 -13.077 0
      vertex 14.6039 -11.2215 0
    endloop
  endfacet
  facet normal 0 0 -1
    outer loop
      vertex 11.125 -19.2691 0
      vertex 12.05 -13.077 0
      vertex 14.8882 -16.535 0
    endloop
  endfacet
  facet normal 0 0 -1
    outer loop
      vertex 11.125 -19.2691 0
      vertex 9.16616 -14.361 0
      vertex 12.05 -13.077 0
    endloop
  endfacet
  facet normal 0 0 -1
    outer loop
      vertex 6.07838 -15.0173 0
      vertex 11.125 -19.2691 0
      vertex 6.87563 -21.161 0
    endloop
  endfacet
  facet normal 0 0 -1
    outer loop
      vertex 11.125 -19.2691 0
      vertex 6.07838 -15.0173 0
      vertex 9.16616 -14.361 0
    endloop
  endfacet
  facet normal 0 0 -1
    outer loop
      vertex 6.87563 -21.161 0
      vertex 4.5 -17.0063 0
      vertex 6.07838 -15.0173 0
    endloop
  endfacet
  facet normal 0 0 -1
    outer loop
      vertex 2.32576 -22.1281 0
      vertex 4.5 -17.0063 0
      vertex 6.87563 -21.161 0
    endloop
  endfacet
  facet normal -0 0 -1
    outer loop
      vertex 4.5 -17.0063 0
      vertex 2.32576 -22.1281 0
      vertex 2.71256 -17.0063 0
    endloop
  endfacet
  facet normal 0 0 -1
    outer loop
      vertex 2.32576 -22.1281 0
      vertex -0.78419 -16.2631 0
      vertex 2.71256 -17.0063 0
    endloop
  endfacet
  facet normal 0 0 -1
    outer loop
      vertex -2.32576 -22.1281 0
      vertex -0.78419 -16.2631 0
      vertex 2.32576 -22.1281 0
    endloop
  endfacet
  facet normal 0 0 -1
    outer loop
      vertex -2.32576 -22.1281 0
      vertex -4.05 -14.809 0
      vertex -0.78419 -16.2631 0
    endloop
  endfacet
  facet normal 0 0 -1
    outer loop
      vertex -6.87563 -21.161 0
      vertex -4.05 -14.809 0
      vertex -2.32576 -22.1281 0
    endloop
  endfacet
  facet normal 0 0 -1
    outer loop
      vertex -11.125 -19.2691 0
      vertex -4.05 -14.809 0
      vertex -6.87563 -21.161 0
    endloop
  endfacet
  facet normal -0 0 -1
    outer loop
      vertex -4.05 -14.809 0
      vertex -11.125 -19.2691 0
      vertex -6.94213 -12.7078 0
    endloop
  endfacet
  facet normal 0 0 -1
    outer loop
      vertex -14.8882 -16.535 0
      vertex -6.94213 -12.7078 0
      vertex -11.125 -19.2691 0
    endloop
  endfacet
  facet normal -0 0 -1
    outer loop
      vertex -6.94213 -12.7078 0
      vertex -14.8882 -16.535 0
      vertex -9.33419 -10.0511 0
    endloop
  endfacet
  facet normal 0 0 -1
    outer loop
      vertex -18.0006 -13.0782 0
      vertex -9.33419 -10.0511 0
      vertex -14.8882 -16.535 0
    endloop
  endfacet
  facet normal -0 0 -1
    outer loop
      vertex -9.33419 -10.0511 0
      vertex -18.0006 -13.0782 0
      vertex -11.0669 -7.05 0
    endloop
  endfacet
  facet normal 0 0 -1
    outer loop
      vertex -20.3264 -9.04989 0
      vertex -17.2 -7.05 0
      vertex -18.0006 -13.0782 0
    endloop
  endfacet
  facet normal -0 0 -1
    outer loop
      vertex -11.0669 -7.05 0
      vertex -18.0006 -13.0782 0
      vertex -17.2 -7.05 0
    endloop
  endfacet
  facet normal 0 0 -1
    outer loop
      vertex 18.2945 6.14172 0
      vertex 21.7638 4.62603 0
      vertex 19.27 3.13947 0
    endloop
  endfacet
  facet normal 0 0 -1
    outer loop
      vertex 21.7638 4.62603 0
      vertex 18.2945 6.14172 0
      vertex 20.3264 9.04989 0
    endloop
  endfacet
  facet normal 0 0 -1
    outer loop
      vertex 16.7162 8.87556 0
      vertex 20.3264 9.04989 0
      vertex 18.2945 6.14172 0
    endloop
  endfacet
  facet normal -0 0 -1
    outer loop
      vertex 20.3264 9.04989 0
      vertex 16.7162 8.87556 0
      vertex 18.0006 13.0782 0
    endloop
  endfacet
  facet normal 0 0 -1
    outer loop
      vertex 14.6039 11.2215 0
      vertex 18.0006 13.0782 0
      vertex 16.7162 8.87556 0
    endloop
  endfacet
  facet normal -0 0 -1
    outer loop
      vertex 18.0006 13.0782 0
      vertex 14.6039 11.2215 0
      vertex 14.8882 16.535 0
    endloop
  endfacet
  facet normal 0 0 -1
    outer loop
      vertex 12.05 13.077 0
      vertex 14.8882 16.535 0
      vertex 14.6039 11.2215 0
    endloop
  endfacet
  facet normal 0 0 -1
    outer loop
      vertex 12.05 13.077 0
      vertex 11.125 19.2691 0
      vertex 14.8882 16.535 0
    endloop
  endfacet
  facet normal 0 0 -1
    outer loop
      vertex 9.16616 14.361 0
      vertex 11.125 19.2691 0
      vertex 12.05 13.077 0
    endloop
  endfacet
  facet normal 0 0 -1
    outer loop
      vertex 6.07838 15.0173 0
      vertex 11.125 19.2691 0
      vertex 9.16616 14.361 0
    endloop
  endfacet
  facet normal -0 0 -1
    outer loop
      vertex 11.125 19.2691 0
      vertex 6.07838 15.0173 0
      vertex 6.87563 21.161 0
    endloop
  endfacet
  facet normal 0 0 -1
    outer loop
      vertex 4.5 17.0063 0
      vertex 6.07838 15.0173 0
      vertex 4.5 15.0173 0
    endloop
  endfacet
  facet normal 0 0 -1
    outer loop
      vertex 6.07838 15.0173 0
      vertex 4.5 17.0063 0
      vertex 6.87563 21.161 0
    endloop
  endfacet
  facet normal 0 0 -1
    outer loop
      vertex 2.32576 22.1281 0
      vertex 4.5 17.0063 0
      vertex 2.71256 17.0063 0
    endloop
  endfacet
  facet normal 0 0 -1
    outer loop
      vertex 4.5 17.0063 0
      vertex 2.32576 22.1281 0
      vertex 6.87563 21.161 0
    endloop
  endfacet
  facet normal 0 0 -1
    outer loop
      vertex -0.78419 16.2631 0
      vertex 2.32576 22.1281 0
      vertex 2.71256 17.0063 0
    endloop
  endfacet
  facet normal 0 0 -1
    outer loop
      vertex -0.78419 16.2631 0
      vertex -2.32576 22.1281 0
      vertex 2.32576 22.1281 0
    endloop
  endfacet
  facet normal 0 0 -1
    outer loop
      vertex -4.05 14.809 0
      vertex -2.32576 22.1281 0
      vertex -0.78419 16.2631 0
    endloop
  endfacet
  facet normal 0 0 -1
    outer loop
      vertex -4.05 14.809 0
      vertex -6.87563 21.161 0
      vertex -2.32576 22.1281 0
    endloop
  endfacet
  facet normal 0 0 -1
    outer loop
      vertex -11.125 19.2691 0
      vertex -4.05 14.809 0
      vertex -6.94213 12.7078 0
    endloop
  endfacet
  facet normal 0 0 -1
    outer loop
      vertex -14.8882 16.535 0
      vertex -6.94213 12.7078 0
      vertex -9.33419 10.0511 0
    endloop
  endfacet
  facet normal 0 0 -1
    outer loop
      vertex -18.0006 13.0782 0
      vertex -9.33419 10.0511 0
      vertex -11.0669 7.05 0
    endloop
  endfacet
  facet normal 0 0 -1
    outer loop
      vertex -4.05 14.809 0
      vertex -11.125 19.2691 0
      vertex -6.87563 21.161 0
    endloop
  endfacet
  facet normal 0 0 -1
    outer loop
      vertex -6.94213 12.7078 0
      vertex -14.8882 16.535 0
      vertex -11.125 19.2691 0
    endloop
  endfacet
  facet normal 0 0 -1
    outer loop
      vertex -18.0006 13.0782 0
      vertex -11.0669 7.05 0
      vertex -17.2 7.05 0
    endloop
  endfacet
  facet normal 0 0 -1
    outer loop
      vertex -9.33419 10.0511 0
      vertex -18.0006 13.0782 0
      vertex -14.8882 16.535 0
    endloop
  endfacet
  facet normal 0 0 -1
    outer loop
      vertex -21.7638 -4.62603 0
      vertex -17.2 -7.05 0
      vertex -20.3264 -9.04989 0
    endloop
  endfacet
  facet normal 0 0 -1
    outer loop
      vertex -22.25 0 0
      vertex -17.2 -7.05 0
      vertex -21.7638 -4.62603 0
    endloop
  endfacet
  facet normal 0 0 -1
    outer loop
      vertex -17.2 7.05 0
      vertex -20.3264 9.04989 0
      vertex -18.0006 13.0782 0
    endloop
  endfacet
  facet normal 0 0 -1
    outer loop
      vertex -17.2 -7.05 0
      vertex -22.25 0 0
      vertex -17.2 7.05 0
    endloop
  endfacet
  facet normal -0 0 -1
    outer loop
      vertex -17.2 7.05 0
      vertex -21.7638 4.62603 0
      vertex -20.3264 9.04989 0
    endloop
  endfacet
  facet normal 0 0 -1
    outer loop
      vertex -17.2 7.05 0
      vertex -22.25 0 0
      vertex -21.7638 4.62603 0
    endloop
  endfacet
  facet normal -0 0 -1
    outer loop
      vertex 6.07838 -15.0173 0
      vertex 4.5 -17.0063 0
      vertex 4.5 -15.0173 0
    endloop
  endfacet
  facet normal -0.951064 -0.308993 0
    outer loop
      vertex -21.7638 -4.62603 0
      vertex -21.548 -5.29025 3.41598
      vertex -21.7638 -4.62603 2.84043
    endloop
  endfacet
  facet normal -0.951056 -0.309017 -5.08763e-06
    outer loop
      vertex -20.3264 -9.04989 0
      vertex -21.548 -5.29025 3.41598
      vertex -21.7638 -4.62603 0
    endloop
  endfacet
  facet normal -0.951058 -0.309013 0
    outer loop
      vertex -21.3 -6.05341 4.60349
      vertex -20.3264 -9.04989 0
      vertex -21.3 -6.05341 11.3965
    endloop
  endfacet
  facet normal -0.951051 -0.309034 1.53942e-05
    outer loop
      vertex -21.548 -5.29025 3.41598
      vertex -20.3264 -9.04989 0
      vertex -21.3 -6.05341 4.60349
    endloop
  endfacet
  facet normal -0.951064 -0.308995 2.53428e-06
    outer loop
      vertex -20.3264 -9.04989 55
      vertex -21.7638 -4.62603 13.1596
      vertex -21.548 -5.29025 12.584
    endloop
  endfacet
  facet normal -0.951045 -0.309051 -2.95537e-06
    outer loop
      vertex -20.3264 -9.04989 55
      vertex -21.548 -5.29025 12.584
      vertex -21.3 -6.05341 11.3965
    endloop
  endfacet
  facet normal -0.951058 -0.309013 -0
    outer loop
      vertex -20.3264 -9.04989 55
      vertex -21.3 -6.05341 11.3965
      vertex -20.3264 -9.04989 0
    endloop
  endfacet
  facet normal -0.951056 -0.309017 0
    outer loop
      vertex -21.7638 -4.62603 13.1596
      vertex -20.3264 -9.04989 55
      vertex -21.7638 -4.62603 55
    endloop
  endfacet
  facet normal 0.743157 -0.669117 0
    outer loop
      vertex 14.8882 -16.535 55
      vertex 18.0006 -13.0782 0
      vertex 18.0006 -13.0782 55
    endloop
  endfacet
  facet normal 0.743157 -0.669117 0
    outer loop
      vertex 18.0006 -13.0782 0
      vertex 14.8882 -16.535 55
      vertex 14.8882 -16.535 0
    endloop
  endfacet
  facet normal -0.207911 -0.978148 0
    outer loop
      vertex -6.87563 -21.161 0
      vertex -2.32576 -22.1281 55
      vertex -6.87563 -21.161 55
    endloop
  endfacet
  facet normal -0.207911 -0.978148 -0
    outer loop
      vertex -2.32576 -22.1281 55
      vertex -6.87563 -21.161 0
      vertex -2.32576 -22.1281 0
    endloop
  endfacet
  facet normal 0.406752 -0.913538 0
    outer loop
      vertex -4.05 14.809 0
      vertex -0.78419 16.2631 60
      vertex -4.05 14.809 60
    endloop
  endfacet
  facet normal 0.406752 -0.913538 0
    outer loop
      vertex -0.78419 16.2631 60
      vertex -4.05 14.809 0
      vertex -0.78419 16.2631 0
    endloop
  endfacet
  facet normal 0.866022 -0.500005 0
    outer loop
      vertex -11.0669 7.05 60
      vertex -9.33419 10.0511 0
      vertex -9.33419 10.0511 60
    endloop
  endfacet
  facet normal 0.866022 -0.500005 0
    outer loop
      vertex -9.33419 10.0511 0
      vertex -11.0669 7.05 60
      vertex -11.0669 7.05 0
    endloop
  endfacet
  facet normal 0 -1 0
    outer loop
      vertex 2.71256 17.0063 0
      vertex 4.5 17.0063 60
      vertex 2.71256 17.0063 60
    endloop
  endfacet
  facet normal 0 -1 -0
    outer loop
      vertex 4.5 17.0063 60
      vertex 2.71256 17.0063 0
      vertex 4.5 17.0063 0
    endloop
  endfacet
  facet normal 0.587775 -0.809024 0
    outer loop
      vertex -6.94213 12.7078 0
      vertex -4.05 14.809 60
      vertex -6.94213 12.7078 60
    endloop
  endfacet
  facet normal 0.587775 -0.809024 0
    outer loop
      vertex -4.05 14.809 60
      vertex -6.94213 12.7078 0
      vertex -4.05 14.809 0
    endloop
  endfacet
  facet normal 0.207896 -0.978151 0
    outer loop
      vertex -0.78419 16.2631 0
      vertex 2.71256 17.0063 60
      vertex -0.78419 16.2631 60
    endloop
  endfacet
  facet normal 0.207896 -0.978151 0
    outer loop
      vertex 2.71256 17.0063 60
      vertex -0.78419 16.2631 0
      vertex 2.71256 17.0063 0
    endloop
  endfacet
  facet normal 0.743151 -0.669124 0
    outer loop
      vertex -9.33419 10.0511 60
      vertex -6.94213 12.7078 0
      vertex -6.94213 12.7078 60
    endloop
  endfacet
  facet normal 0.743151 -0.669124 0
    outer loop
      vertex -6.94213 12.7078 0
      vertex -9.33419 10.0511 60
      vertex -9.33419 10.0511 0
    endloop
  endfacet
  facet normal 0.207896 0.978151 -0
    outer loop
      vertex 2.71256 -17.0063 0
      vertex -0.78419 -16.2631 60
      vertex 2.71256 -17.0063 60
    endloop
  endfacet
  facet normal 0.207896 0.978151 0
    outer loop
      vertex -0.78419 -16.2631 60
      vertex 2.71256 -17.0063 0
      vertex -0.78419 -16.2631 0
    endloop
  endfacet
  facet normal 0.866022 0.500005 0
    outer loop
      vertex -9.33419 -10.0511 60
      vertex -11.0669 -7.05 0
      vertex -11.0669 -7.05 60
    endloop
  endfacet
  facet normal 0.866022 0.500005 0
    outer loop
      vertex -11.0669 -7.05 0
      vertex -9.33419 -10.0511 60
      vertex -9.33419 -10.0511 0
    endloop
  endfacet
  facet normal 0.406752 0.913538 -0
    outer loop
      vertex -0.78419 -16.2631 0
      vertex -4.05 -14.809 60
      vertex -0.78419 -16.2631 60
    endloop
  endfacet
  facet normal 0.406752 0.913538 0
    outer loop
      vertex -4.05 -14.809 60
      vertex -0.78419 -16.2631 0
      vertex -4.05 -14.809 0
    endloop
  endfacet
  facet normal 0 1 -0
    outer loop
      vertex 4.5 -17.0063 0
      vertex 2.71256 -17.0063 60
      vertex 4.5 -17.0063 60
    endloop
  endfacet
  facet normal 0 1 0
    outer loop
      vertex 2.71256 -17.0063 60
      vertex 4.5 -17.0063 0
      vertex 2.71256 -17.0063 0
    endloop
  endfacet
  facet normal 0.743151 0.669124 0
    outer loop
      vertex -6.94213 -12.7078 60
      vertex -9.33419 -10.0511 0
      vertex -9.33419 -10.0511 60
    endloop
  endfacet
  facet normal 0.743151 0.669124 0
    outer loop
      vertex -9.33419 -10.0511 0
      vertex -6.94213 -12.7078 60
      vertex -6.94213 -12.7078 0
    endloop
  endfacet
  facet normal 0.587775 0.809024 -0
    outer loop
      vertex -4.05 -14.809 0
      vertex -6.94213 -12.7078 60
      vertex -4.05 -14.809 60
    endloop
  endfacet
  facet normal 0.587775 0.809024 0
    outer loop
      vertex -6.94213 -12.7078 60
      vertex -4.05 -14.809 0
      vertex -6.94213 -12.7078 0
    endloop
  endfacet
  facet normal -1 0 0
    outer loop
      vertex 4.5 -17.0063 0
      vertex 4.5 -15.0173 60
      vertex 4.5 -15.0173 0
    endloop
  endfacet
  facet normal -1 -0 0
    outer loop
      vertex 4.5 -15.0173 60
      vertex 4.5 -17.0063 0
      vertex 4.5 -17.0063 60
    endloop
  endfacet
  facet normal -1 0 0
    outer loop
      vertex 4.5 15.0173 0
      vertex 4.5 17.0063 60
      vertex 4.5 17.0063 0
    endloop
  endfacet
  facet normal -1 -0 0
    outer loop
      vertex 4.5 17.0063 60
      vertex 4.5 15.0173 0
      vertex 4.5 15.0173 60
    endloop
  endfacet
  facet normal -0.994521 -0.104537 0
    outer loop
      vertex 19.6 0 0
      vertex 19.27 3.13947 60
      vertex 19.27 3.13947 0
    endloop
  endfacet
  facet normal -0.994521 -0.104537 0
    outer loop
      vertex 19.27 3.13947 60
      vertex 19.6 0 0
      vertex 19.6 0 60
    endloop
  endfacet
  facet normal 0 -1 0
    outer loop
      vertex 4.5 15.0173 0
      vertex 6.07838 15.0173 60
      vertex 4.5 15.0173 60
    endloop
  endfacet
  facet normal 0 -1 -0
    outer loop
      vertex 6.07838 15.0173 60
      vertex 4.5 15.0173 0
      vertex 6.07838 15.0173 0
    endloop
  endfacet
  facet normal 0 1 -0
    outer loop
      vertex 6.07838 -15.0173 0
      vertex 4.5 -15.0173 60
      vertex 6.07838 -15.0173 60
    endloop
  endfacet
  facet normal 0 1 0
    outer loop
      vertex 4.5 -15.0173 60
      vertex 6.07838 -15.0173 0
      vertex 4.5 -15.0173 0
    endloop
  endfacet
  facet normal -0.587782 -0.80902 0
    outer loop
      vertex 12.05 13.077 0
      vertex 14.6039 11.2215 60
      vertex 12.05 13.077 60
    endloop
  endfacet
  facet normal -0.587782 -0.80902 -0
    outer loop
      vertex 14.6039 11.2215 60
      vertex 12.05 13.077 0
      vertex 14.6039 11.2215 0
    endloop
  endfacet
  facet normal -0.866037 -0.49998 0
    outer loop
      vertex 18.2945 6.14172 0
      vertex 16.7162 8.87556 60
      vertex 16.7162 8.87556 0
    endloop
  endfacet
  facet normal -0.866037 -0.49998 0
    outer loop
      vertex 16.7162 8.87556 60
      vertex 18.2945 6.14172 0
      vertex 18.2945 6.14172 60
    endloop
  endfacet
  facet normal -0.951056 -0.30902 0
    outer loop
      vertex 19.27 3.13947 0
      vertex 18.2945 6.14172 60
      vertex 18.2945 6.14172 0
    endloop
  endfacet
  facet normal -0.951056 -0.30902 0
    outer loop
      vertex 18.2945 6.14172 60
      vertex 19.27 3.13947 0
      vertex 19.27 3.13947 60
    endloop
  endfacet
  facet normal -0.743144 -0.669132 0
    outer loop
      vertex 16.7162 8.87556 0
      vertex 14.6039 11.2215 60
      vertex 14.6039 11.2215 0
    endloop
  endfacet
  facet normal -0.743144 -0.669132 0
    outer loop
      vertex 14.6039 11.2215 60
      vertex 16.7162 8.87556 0
      vertex 16.7162 8.87556 60
    endloop
  endfacet
  facet normal -0.207903 -0.978149 0
    outer loop
      vertex 6.07838 15.0173 0
      vertex 9.16616 14.361 60
      vertex 6.07838 15.0173 60
    endloop
  endfacet
  facet normal -0.207903 -0.978149 -0
    outer loop
      vertex 9.16616 14.361 60
      vertex 6.07838 15.0173 0
      vertex 9.16616 14.361 0
    endloop
  endfacet
  facet normal -0.406745 -0.913542 0
    outer loop
      vertex 9.16616 14.361 0
      vertex 12.05 13.077 60
      vertex 9.16616 14.361 60
    endloop
  endfacet
  facet normal -0.406745 -0.913542 -0
    outer loop
      vertex 12.05 13.077 60
      vertex 9.16616 14.361 0
      vertex 12.05 13.077 0
    endloop
  endfacet
  facet normal -0.994521 0.104537 0
    outer loop
      vertex 19.27 -3.13947 0
      vertex 19.6 0 60
      vertex 19.6 0 0
    endloop
  endfacet
  facet normal -0.994521 0.104537 0
    outer loop
      vertex 19.6 0 60
      vertex 19.27 -3.13947 0
      vertex 19.27 -3.13947 60
    endloop
  endfacet
  facet normal -0.866037 0.49998 0
    outer loop
      vertex 16.7162 -8.87556 0
      vertex 18.2945 -6.14172 60
      vertex 18.2945 -6.14172 0
    endloop
  endfacet
  facet normal -0.866037 0.49998 0
    outer loop
      vertex 18.2945 -6.14172 60
      vertex 16.7162 -8.87556 0
      vertex 16.7162 -8.87556 60
    endloop
  endfacet
  facet normal -0.587782 0.80902 0
    outer loop
      vertex 14.6039 -11.2215 0
      vertex 12.05 -13.077 60
      vertex 14.6039 -11.2215 60
    endloop
  endfacet
  facet normal -0.587782 0.80902 0
    outer loop
      vertex 12.05 -13.077 60
      vertex 14.6039 -11.2215 0
      vertex 12.05 -13.077 0
    endloop
  endfacet
  facet normal -0.951056 0.30902 0
    outer loop
      vertex 18.2945 -6.14172 0
      vertex 19.27 -3.13947 60
      vertex 19.27 -3.13947 0
    endloop
  endfacet
  facet normal -0.951056 0.30902 0
    outer loop
      vertex 19.27 -3.13947 60
      vertex 18.2945 -6.14172 0
      vertex 18.2945 -6.14172 60
    endloop
  endfacet
  facet normal -0.406745 0.913542 0
    outer loop
      vertex 12.05 -13.077 0
      vertex 9.16616 -14.361 60
      vertex 12.05 -13.077 60
    endloop
  endfacet
  facet normal -0.406745 0.913542 0
    outer loop
      vertex 9.16616 -14.361 60
      vertex 12.05 -13.077 0
      vertex 9.16616 -14.361 0
    endloop
  endfacet
  facet normal -0.207903 0.978149 0
    outer loop
      vertex 9.16616 -14.361 0
      vertex 6.07838 -15.0173 60
      vertex 9.16616 -14.361 60
    endloop
  endfacet
  facet normal -0.207903 0.978149 0
    outer loop
      vertex 6.07838 -15.0173 60
      vertex 9.16616 -14.361 0
      vertex 6.07838 -15.0173 0
    endloop
  endfacet
  facet normal -0.743144 0.669132 0
    outer loop
      vertex 14.6039 -11.2215 0
      vertex 16.7162 -8.87556 60
      vertex 16.7162 -8.87556 0
    endloop
  endfacet
  facet normal -0.743144 0.669132 0
    outer loop
      vertex 16.7162 -8.87556 60
      vertex 14.6039 -11.2215 0
      vertex 14.6039 -11.2215 60
    endloop
  endfacet
  facet normal 1 -0 0
    outer loop
      vertex -17.2 3.18371 9.45395
      vertex -17.2 7.05 0
      vertex -17.2 7.05 60
    endloop
  endfacet
  facet normal 1 0 0
    outer loop
      vertex -17.2 7.05 0
      vertex -17.2 3.18371 9.45395
      vertex -17.2 3.46437 7.5019
    endloop
  endfacet
  facet normal 1 0 0
    outer loop
      vertex -17.2 7.05 60
      vertex -17.2 1.89224 10.9444
      vertex -17.2 3.18371 9.45395
    endloop
  endfacet
  facet normal 1 0 0
    outer loop
      vertex -17.2 7.05 60
      vertex -17.2 0 11.5
      vertex -17.2 1.89224 10.9444
    endloop
  endfacet
  facet normal 1 -0 0
    outer loop
      vertex -17.2 -7.05 60
      vertex -17.2 0 11.5
      vertex -17.2 7.05 60
    endloop
  endfacet
  facet normal 1 0 0
    outer loop
      vertex -17.2 0 11.5
      vertex -17.2 -7.05 60
      vertex -17.2 -1.89224 10.9444
    endloop
  endfacet
  facet normal 1 0 0
    outer loop
      vertex -17.2 -7.05 0
      vertex -17.2 -3.18371 9.45395
      vertex -17.2 -7.05 60
    endloop
  endfacet
  facet normal 1 0 0
    outer loop
      vertex -17.2 -1.89224 10.9444
      vertex -17.2 -7.05 60
      vertex -17.2 -3.18371 9.45395
    endloop
  endfacet
  facet normal 1 -0 0
    outer loop
      vertex -17.2 2.64512 5.70799
      vertex -17.2 7.05 0
      vertex -17.2 3.46437 7.5019
    endloop
  endfacet
  facet normal 1 -0 0
    outer loop
      vertex -17.2 0.986063 4.64178
      vertex -17.2 7.05 0
      vertex -17.2 2.64512 5.70799
    endloop
  endfacet
  facet normal 1 -0 0
    outer loop
      vertex -17.2 -0.986063 4.64178
      vertex -17.2 7.05 0
      vertex -17.2 0.986063 4.64178
    endloop
  endfacet
  facet normal 1 0 0
    outer loop
      vertex -17.2 -0.986063 4.64178
      vertex -17.2 -7.05 0
      vertex -17.2 7.05 0
    endloop
  endfacet
  facet normal 1 0 0
    outer loop
      vertex -17.2 -2.64512 5.70799
      vertex -17.2 -7.05 0
      vertex -17.2 -0.986063 4.64178
    endloop
  endfacet
  facet normal 1 0 0
    outer loop
      vertex -17.2 -3.46437 7.5019
      vertex -17.2 -7.05 0
      vertex -17.2 -2.64512 5.70799
    endloop
  endfacet
  facet normal 1 0 0
    outer loop
      vertex -17.2 -3.18371 9.45395
      vertex -17.2 -7.05 0
      vertex -17.2 -3.46437 7.5019
    endloop
  endfacet
  facet normal 0 -1 0
    outer loop
      vertex -17.2 7.05 0
      vertex -11.0669 7.05 60
      vertex -17.2 7.05 60
    endloop
  endfacet
  facet normal 0 -1 -0
    outer loop
      vertex -11.0669 7.05 60
      vertex -17.2 7.05 0
      vertex -11.0669 7.05 0
    endloop
  endfacet
  facet normal 0 1 -0
    outer loop
      vertex -11.0669 -7.05 0
      vertex -17.2 -7.05 60
      vertex -11.0669 -7.05 60
    endloop
  endfacet
  facet normal 0 1 0
    outer loop
      vertex -17.2 -7.05 60
      vertex -11.0669 -7.05 0
      vertex -17.2 -7.05 0
    endloop
  endfacet
  facet normal 0 -0.281727 -0.959495
    outer loop
      vertex -21.3 0 11.5
      vertex -17.2 1.89224 10.9444
      vertex -17.2 0 11.5
    endloop
  endfacet
  facet normal -0 -0.281727 -0.959495
    outer loop
      vertex -17.2 1.89224 10.9444
      vertex -21.3 0 11.5
      vertex -21.3 1.89224 10.9444
    endloop
  endfacet
  facet normal -0 0 1
    outer loop
      vertex -21.3 0.986063 4.64178
      vertex -17.2 -0.986063 4.64178
      vertex -17.2 0.986063 4.64178
    endloop
  endfacet
  facet normal 0 0 1
    outer loop
      vertex -17.2 -0.986063 4.64178
      vertex -21.3 0.986063 4.64178
      vertex -21.3 -0.986063 4.64178
    endloop
  endfacet
  facet normal 0 -0.909632 0.415414
    outer loop
      vertex -21.3 2.64512 5.70799
      vertex -17.2 3.46437 7.5019
      vertex -21.3 3.46437 7.5019
    endloop
  endfacet
  facet normal 0 -0.909632 0.415414
    outer loop
      vertex -17.2 3.46437 7.5019
      vertex -21.3 2.64512 5.70799
      vertex -17.2 2.64512 5.70799
    endloop
  endfacet
  facet normal 0 -0.54064 0.841254
    outer loop
      vertex -21.3 2.64512 5.70799
      vertex -17.2 0.986063 4.64178
      vertex -17.2 2.64512 5.70799
    endloop
  endfacet
  facet normal 0 -0.54064 0.841254
    outer loop
      vertex -17.2 0.986063 4.64178
      vertex -21.3 2.64512 5.70799
      vertex -21.3 0.986063 4.64178
    endloop
  endfacet
  facet normal 0 0.281727 -0.959495
    outer loop
      vertex -21.3 -1.89224 10.9444
      vertex -17.2 0 11.5
      vertex -17.2 -1.89224 10.9444
    endloop
  endfacet
  facet normal 0 0.281727 -0.959495
    outer loop
      vertex -17.2 0 11.5
      vertex -21.3 -1.89224 10.9444
      vertex -21.3 0 11.5
    endloop
  endfacet
  facet normal 0 -0.989822 -0.142314
    outer loop
      vertex -21.3 3.46437 7.5019
      vertex -17.2 3.18371 9.45395
      vertex -21.3 3.18371 9.45395
    endloop
  endfacet
  facet normal 0 -0.989822 -0.142314
    outer loop
      vertex -17.2 3.18371 9.45395
      vertex -21.3 3.46437 7.5019
      vertex -17.2 3.46437 7.5019
    endloop
  endfacet
  facet normal 0 -0.755753 -0.654857
    outer loop
      vertex -21.3 3.18371 9.45395
      vertex -17.2 1.89224 10.9444
      vertex -21.3 1.89224 10.9444
    endloop
  endfacet
  facet normal 0 -0.755753 -0.654857
    outer loop
      vertex -17.2 1.89224 10.9444
      vertex -21.3 3.18371 9.45395
      vertex -17.2 3.18371 9.45395
    endloop
  endfacet
  facet normal -0 0.54064 0.841254
    outer loop
      vertex -21.3 -0.986063 4.64178
      vertex -17.2 -2.64512 5.70799
      vertex -17.2 -0.986063 4.64178
    endloop
  endfacet
  facet normal 0 0.54064 0.841254
    outer loop
      vertex -17.2 -2.64512 5.70799
      vertex -21.3 -0.986063 4.64178
      vertex -21.3 -2.64512 5.70799
    endloop
  endfacet
  facet normal 0 0.755753 -0.654857
    outer loop
      vertex -17.2 -3.18371 9.45395
      vertex -21.3 -1.89224 10.9444
      vertex -17.2 -1.89224 10.9444
    endloop
  endfacet
  facet normal 0 0.755753 -0.654857
    outer loop
      vertex -21.3 -1.89224 10.9444
      vertex -17.2 -3.18371 9.45395
      vertex -21.3 -3.18371 9.45395
    endloop
  endfacet
  facet normal 0 0.989822 -0.142314
    outer loop
      vertex -17.2 -3.46437 7.5019
      vertex -21.3 -3.18371 9.45395
      vertex -17.2 -3.18371 9.45395
    endloop
  endfacet
  facet normal 0 0.989822 -0.142314
    outer loop
      vertex -21.3 -3.18371 9.45395
      vertex -17.2 -3.46437 7.5019
      vertex -21.3 -3.46437 7.5019
    endloop
  endfacet
  facet normal 0 0.909632 0.415414
    outer loop
      vertex -17.2 -2.64512 5.70799
      vertex -21.3 -3.46437 7.5019
      vertex -17.2 -3.46437 7.5019
    endloop
  endfacet
  facet normal 0 0.909632 0.415414
    outer loop
      vertex -21.3 -3.46437 7.5019
      vertex -17.2 -2.64512 5.70799
      vertex -21.3 -2.64512 5.70799
    endloop
  endfacet
  facet normal 0 -0.142315 0.989821
    outer loop
      vertex -22.0427 1.97213 1.28355
      vertex -21.3 0 1
      vertex -21.3 1.97213 1.28355
    endloop
  endfacet
  facet normal 0 -0.142315 0.989821
    outer loop
      vertex -21.3 0 1
      vertex -22.0427 1.97213 1.28355
      vertex -22.25 0 1
    endloop
  endfacet
  facet normal 0 0.142315 0.989821
    outer loop
      vertex -21.3 0 1
      vertex -22.0427 -1.97213 1.28355
      vertex -21.3 -1.97213 1.28355
    endloop
  endfacet
  facet normal 0 0.142315 0.989821
    outer loop
      vertex -22.0427 -1.97213 1.28355
      vertex -21.3 0 1
      vertex -22.25 0 1
    endloop
  endfacet
  facet normal 0 0.142291 -0.989825
    outer loop
      vertex -22.0427 -1.97213 14.7165
      vertex -21.3 0 15
      vertex -21.3 -1.97213 14.7165
    endloop
  endfacet
  facet normal 0 0.142291 -0.989825
    outer loop
      vertex -21.3 0 15
      vertex -22.0427 -1.97213 14.7165
      vertex -22.25 0 15
    endloop
  endfacet
  facet normal -5.08128e-05 -0.654873 -0.755739
    outer loop
      vertex -21.7638 4.62603 13.1596
      vertex -21.3 5.29025 12.584
      vertex -21.3 3.78448 13.8888
    endloop
  endfacet
  facet normal -0 -0.654893 -0.755721
    outer loop
      vertex -21.3 5.29025 12.584
      vertex -21.7638 4.62603 13.1596
      vertex -21.548 5.29025 12.584
    endloop
  endfacet
  facet normal 0 -0.654857 -0.755753
    outer loop
      vertex -21.7638 4.62603 13.1596
      vertex -21.3 3.78448 13.8888
      vertex -21.8522 3.78448 13.8888
    endloop
  endfacet
  facet normal 0 -0.415426 -0.909627
    outer loop
      vertex -21.3 1.97213 14.7165
      vertex -21.8522 3.78448 13.8888
      vertex -21.3 3.78448 13.8888
    endloop
  endfacet
  facet normal 0 -0.415426 -0.909627
    outer loop
      vertex -21.8522 3.78448 13.8888
      vertex -21.3 1.97213 14.7165
      vertex -22.0427 1.97213 14.7165
    endloop
  endfacet
  facet normal 0 -0.415418 0.909631
    outer loop
      vertex -21.8522 3.78448 2.11123
      vertex -21.3 1.97213 1.28355
      vertex -21.3 3.78448 2.11123
    endloop
  endfacet
  facet normal 0 -0.415418 0.909631
    outer loop
      vertex -21.3 1.97213 1.28355
      vertex -21.8522 3.78448 2.11123
      vertex -22.0427 1.97213 1.28355
    endloop
  endfacet
  facet normal 0 -0.841256 0.540638
    outer loop
      vertex -21.3 5.29025 3.41598
      vertex -21.3 6.05341 4.60349
      vertex -21.548 5.29025 3.41598
    endloop
  endfacet
  facet normal 0 -0.841254 -0.540641
    outer loop
      vertex -21.3 6.05341 11.3965
      vertex -21.3 5.29025 12.584
      vertex -21.548 5.29025 12.584
    endloop
  endfacet
  facet normal 0 -0.654861 0.75575
    outer loop
      vertex -21.7638 4.62603 2.84043
      vertex -21.3 5.29025 3.41598
      vertex -21.548 5.29025 3.41598
    endloop
  endfacet
  facet normal -5.27929e-06 -0.654859 0.755751
    outer loop
      vertex -21.3 5.29025 3.41598
      vertex -21.7638 4.62603 2.84043
      vertex -21.3 3.78448 2.11123
    endloop
  endfacet
  facet normal 0 -0.654857 0.755753
    outer loop
      vertex -21.3 3.78448 2.11123
      vertex -21.7638 4.62603 2.84043
      vertex -21.8522 3.78448 2.11123
    endloop
  endfacet
  facet normal 0 -0.142291 -0.989825
    outer loop
      vertex -21.3 0 15
      vertex -22.0427 1.97213 14.7165
      vertex -21.3 1.97213 14.7165
    endloop
  endfacet
  facet normal 0 -0.142291 -0.989825
    outer loop
      vertex -22.0427 1.97213 14.7165
      vertex -21.3 0 15
      vertex -22.25 0 15
    endloop
  endfacet
  facet normal 0 0.841256 0.540638
    outer loop
      vertex -21.3 -6.05341 4.60349
      vertex -21.3 -5.29025 3.41598
      vertex -21.548 -5.29025 3.41598
    endloop
  endfacet
  facet normal 0 0.415418 0.909631
    outer loop
      vertex -21.3 -1.97213 1.28355
      vertex -21.8522 -3.78448 2.11123
      vertex -21.3 -3.78448 2.11123
    endloop
  endfacet
  facet normal 0 0.415418 0.909631
    outer loop
      vertex -21.8522 -3.78448 2.11123
      vertex -21.3 -1.97213 1.28355
      vertex -22.0427 -1.97213 1.28355
    endloop
  endfacet
  facet normal 0 0.654893 -0.755721
    outer loop
      vertex -21.7638 -4.62603 13.1596
      vertex -21.3 -5.29025 12.584
      vertex -21.548 -5.29025 12.584
    endloop
  endfacet
  facet normal -5.08128e-05 0.654873 -0.755739
    outer loop
      vertex -21.3 -5.29025 12.584
      vertex -21.7638 -4.62603 13.1596
      vertex -21.3 -3.78448 13.8888
    endloop
  endfacet
  facet normal 0 0.654857 -0.755753
    outer loop
      vertex -21.3 -3.78448 13.8888
      vertex -21.7638 -4.62603 13.1596
      vertex -21.8522 -3.78448 13.8888
    endloop
  endfacet
  facet normal -1 0 0
    outer loop
      vertex -21.3 2.64512 5.70799
      vertex -21.3 6.05341 4.60349
      vertex -21.3 5.29025 3.41598
    endloop
  endfacet
  facet normal -1 0 0
    outer loop
      vertex -21.3 6.05341 4.60349
      vertex -21.3 3.46437 7.5019
      vertex -21.3 6.05341 11.3965
    endloop
  endfacet
  facet normal -1 0 0
    outer loop
      vertex -21.3 2.64512 5.70799
      vertex -21.3 5.29025 3.41598
      vertex -21.3 3.78448 2.11123
    endloop
  endfacet
  facet normal -1 0 0
    outer loop
      vertex -21.3 3.18371 9.45395
      vertex -21.3 6.05341 11.3965
      vertex -21.3 3.46437 7.5019
    endloop
  endfacet
  facet normal -1 -0 0
    outer loop
      vertex -21.3 6.05341 11.3965
      vertex -21.3 3.18371 9.45395
      vertex -21.3 5.29025 12.584
    endloop
  endfacet
  facet normal -1 0 0
    outer loop
      vertex -21.3 6.05341 4.60349
      vertex -21.3 2.64512 5.70799
      vertex -21.3 3.46437 7.5019
    endloop
  endfacet
  facet normal -1 0 0
    outer loop
      vertex -21.3 0.986063 4.64178
      vertex -21.3 3.78448 2.11123
      vertex -21.3 1.97213 1.28355
    endloop
  endfacet
  facet normal -1 0 0
    outer loop
      vertex -21.3 3.78448 2.11123
      vertex -21.3 0.986063 4.64178
      vertex -21.3 2.64512 5.70799
    endloop
  endfacet
  facet normal -1 0 0
    outer loop
      vertex -21.3 0 1
      vertex -21.3 0.986063 4.64178
      vertex -21.3 1.97213 1.28355
    endloop
  endfacet
  facet normal -1 0 0
    outer loop
      vertex -21.3 0 1
      vertex -21.3 -0.986063 4.64178
      vertex -21.3 0.986063 4.64178
    endloop
  endfacet
  facet normal -1 0 0
    outer loop
      vertex -21.3 -1.97213 1.28355
      vertex -21.3 -0.986063 4.64178
      vertex -21.3 0 1
    endloop
  endfacet
  facet normal -1 0 0
    outer loop
      vertex -21.3 -3.78448 2.11123
      vertex -21.3 -0.986063 4.64178
      vertex -21.3 -1.97213 1.28355
    endloop
  endfacet
  facet normal -1 -0 0
    outer loop
      vertex -21.3 -0.986063 4.64178
      vertex -21.3 -3.78448 2.11123
      vertex -21.3 -2.64512 5.70799
    endloop
  endfacet
  facet normal -1 0 0
    outer loop
      vertex -21.3 -5.29025 3.41598
      vertex -21.3 -2.64512 5.70799
      vertex -21.3 -3.78448 2.11123
    endloop
  endfacet
  facet normal -1 0 0
    outer loop
      vertex -21.3 1.89224 10.9444
      vertex -21.3 5.29025 12.584
      vertex -21.3 3.18371 9.45395
    endloop
  endfacet
  facet normal -1 -0 0
    outer loop
      vertex -21.3 5.29025 12.584
      vertex -21.3 1.89224 10.9444
      vertex -21.3 3.78448 13.8888
    endloop
  endfacet
  facet normal -1 -0 0
    outer loop
      vertex -21.3 3.78448 13.8888
      vertex -21.3 1.89224 10.9444
      vertex -21.3 1.97213 14.7165
    endloop
  endfacet
  facet normal -1 0 0
    outer loop
      vertex -21.3 0 11.5
      vertex -21.3 1.97213 14.7165
      vertex -21.3 1.89224 10.9444
    endloop
  endfacet
  facet normal -1 0 0
    outer loop
      vertex -21.3 0 11.5
      vertex -21.3 0 15
      vertex -21.3 1.97213 14.7165
    endloop
  endfacet
  facet normal -1 0 0
    outer loop
      vertex -21.3 -1.97213 14.7165
      vertex -21.3 0 11.5
      vertex -21.3 -1.89224 10.9444
    endloop
  endfacet
  facet normal -1 0 0
    outer loop
      vertex -21.3 0 11.5
      vertex -21.3 -1.97213 14.7165
      vertex -21.3 0 15
    endloop
  endfacet
  facet normal -1 0 0
    outer loop
      vertex -21.3 -5.29025 12.584
      vertex -21.3 -1.89224 10.9444
      vertex -21.3 -3.18371 9.45395
    endloop
  endfacet
  facet normal -1 0 0
    outer loop
      vertex -21.3 -1.89224 10.9444
      vertex -21.3 -3.78448 13.8888
      vertex -21.3 -1.97213 14.7165
    endloop
  endfacet
  facet normal -1 0 0
    outer loop
      vertex -21.3 -6.05341 11.3965
      vertex -21.3 -3.18371 9.45395
      vertex -21.3 -3.46437 7.5019
    endloop
  endfacet
  facet normal -1 0 0
    outer loop
      vertex -21.3 -6.05341 4.60349
      vertex -21.3 -2.64512 5.70799
      vertex -21.3 -5.29025 3.41598
    endloop
  endfacet
  facet normal -1 -0 0
    outer loop
      vertex -21.3 -2.64512 5.70799
      vertex -21.3 -6.05341 4.60349
      vertex -21.3 -3.46437 7.5019
    endloop
  endfacet
  facet normal -1 0 0
    outer loop
      vertex -21.3 -6.05341 11.3965
      vertex -21.3 -3.46437 7.5019
      vertex -21.3 -6.05341 4.60349
    endloop
  endfacet
  facet normal -1 0 0
    outer loop
      vertex -21.3 -3.18371 9.45395
      vertex -21.3 -6.05341 11.3965
      vertex -21.3 -5.29025 12.584
    endloop
  endfacet
  facet normal -1 0 0
    outer loop
      vertex -21.3 -1.89224 10.9444
      vertex -21.3 -5.29025 12.584
      vertex -21.3 -3.78448 13.8888
    endloop
  endfacet
  facet normal -5.27929e-06 0.654859 0.755751
    outer loop
      vertex -21.7638 -4.62603 2.84043
      vertex -21.3 -5.29025 3.41598
      vertex -21.3 -3.78448 2.11123
    endloop
  endfacet
  facet normal 0 0.654861 0.75575
    outer loop
      vertex -21.3 -5.29025 3.41598
      vertex -21.7638 -4.62603 2.84043
      vertex -21.548 -5.29025 3.41598
    endloop
  endfacet
  facet normal 0 0.654857 0.755753
    outer loop
      vertex -21.7638 -4.62603 2.84043
      vertex -21.3 -3.78448 2.11123
      vertex -21.8522 -3.78448 2.11123
    endloop
  endfacet
  facet normal 0 0.415426 -0.909627
    outer loop
      vertex -21.8522 -3.78448 13.8888
      vertex -21.3 -1.97213 14.7165
      vertex -21.3 -3.78448 13.8888
    endloop
  endfacet
  facet normal 0 0.415426 -0.909627
    outer loop
      vertex -21.3 -1.97213 14.7165
      vertex -21.8522 -3.78448 13.8888
      vertex -22.0427 -1.97213 14.7165
    endloop
  endfacet
  facet normal 0 0.841254 -0.540641
    outer loop
      vertex -21.3 -5.29025 12.584
      vertex -21.3 -6.05341 11.3965
      vertex -21.548 -5.29025 12.584
    endloop
  endfacet
endsolid OpenSCAD_Model
